<svg version="1.1" id="Layer_1" xmlns="http://www.w3.org/2000/svg" xmlns:xlink="http://www.w3.org/1999/xlink" x="0px" y="0px"
	 width="100%" viewBox="0 0 500 500" enable-background="new 0 0 500 500" xml:space="preserve">
<path fill="#FEFEFE" opacity="1.000000" stroke="none" 
	d="
M1.000000,193.000000 
	C1.000000,130.015610 1.032105,67.531151 0.910508,5.046990 
	C0.904047,1.727074 1.430906,0.897134 4.951257,0.899611 
	C168.910217,1.015005 332.869293,1.018305 496.828247,0.886985 
	C500.649872,0.883924 501.080505,1.937041 501.078644,5.326263 
	C500.988647,169.118637 500.987244,332.911072 501.086273,496.703430 
	C501.088379,500.179474 500.534882,501.109528 496.798523,501.106720 
	C333.006195,500.983093 169.213745,500.982422 5.421422,501.105591 
	C1.496494,501.108551 0.910454,500.028717 0.914265,496.423492 
	C1.021018,395.449097 1.000000,294.474518 1.000000,193.000000 
z"/>
<path fill="#1E1E1E" opacity="1.000000" stroke="none" 
	d="
M377.776550,96.842361 
	C410.146118,122.855194 432.202026,155.667709 442.916443,195.246307 
	C462.839966,268.842499 446.223663,333.947113 394.724915,390.138489 
	C391.919952,393.199066 388.768555,395.942169 385.471375,398.954285 
	C384.613831,399.319580 384.151184,399.207153 383.647308,398.360474 
	C384.159180,394.162292 387.417511,392.305389 389.817078,389.891205 
	C411.430603,368.145691 427.375885,342.844452 437.092743,313.783966 
	C442.648499,297.168243 445.896454,280.097046 446.848816,262.465149 
	C449.790710,207.998764 432.661316,160.671738 397.153351,119.732353 
	C391.826385,113.590508 386.009369,107.813278 379.681488,102.626541 
	C378.386566,101.565163 377.111725,100.493362 376.547943,98.417694 
	C376.619293,97.472603 376.910248,97.051193 377.776550,96.842361 
z"/>
<path fill="#1E1E1E" opacity="1.000000" stroke="none" 
	d="
M117.213326,399.164215 
	C87.778931,373.310791 67.558662,341.623901 58.313396,304.143616 
	C38.151066,222.405487 60.153500,153.160706 123.508453,97.028900 
	C124.370728,96.670975 124.834671,96.779892 125.346222,97.622147 
	C125.427895,100.074432 123.953461,101.221596 122.567215,102.421288 
	C94.271667,126.908890 74.599823,157.113754 63.414131,192.737732 
	C58.671028,207.843475 56.126091,223.370850 55.117729,239.296783 
	C52.803844,275.841949 60.515865,310.035889 77.169777,342.401337 
	C86.154938,359.863190 97.911674,375.313599 111.636528,389.316040 
	C114.060669,391.789246 117.025124,393.831848 118.454941,397.595520 
	C118.375557,398.540283 118.081306,398.959808 117.213326,399.164215 
z"/>
<path fill="#202020" opacity="1.000000" stroke="none" 
	d="
M164.030060,71.469803 
	C184.596313,60.766731 206.350342,54.427994 229.206299,52.055103 
	C266.994171,48.132000 303.129150,54.140133 337.714630,70.824821 
	C338.074860,71.660713 337.863281,72.146202 336.954346,72.664375 
	C334.263245,73.298920 332.361420,72.143394 330.386780,71.307098 
	C308.460907,62.021099 285.699860,56.680828 261.845856,55.252258 
	C230.338287,53.365337 200.403244,59.249710 171.487564,71.366074 
	C169.806015,72.070679 168.185196,72.965393 165.863037,72.897560 
	C164.876724,72.671829 164.412079,72.357742 164.030060,71.469803 
z"/>
<path fill="#1E1E1E" opacity="1.000000" stroke="none" 
	d="
M319.196655,438.537781 
	C292.760284,449.094910 265.518738,452.337433 237.621536,450.622284 
	C219.104416,449.483826 201.037262,445.922272 183.342651,439.077179 
	C182.626816,438.433289 182.508621,437.892365 182.964935,436.965607 
	C185.871170,435.744537 188.140930,437.092041 190.475983,437.820618 
	C206.418350,442.794952 222.704117,445.525208 239.390472,446.691406 
	C264.811157,448.467987 289.376526,444.684662 313.525787,437.139771 
	C314.953125,436.693848 316.376434,436.208282 318.326477,436.499451 
	C319.228790,437.028046 319.454224,437.535797 319.196655,438.537781 
z"/>
<path fill="#212121" opacity="1.000000" stroke="none" 
	d="
M319.349915,438.904419 
	C318.982483,438.519531 318.990631,438.123047 318.999207,437.429047 
	C319.614227,434.803467 321.744995,434.438721 323.537628,433.702240 
	C343.798065,425.378265 362.485687,414.484467 378.925598,399.902344 
	C380.176422,398.792786 381.472107,397.753296 383.610046,397.781403 
	C384.190491,398.195831 384.418152,398.503571 384.905090,398.943420 
	C366.113159,416.886871 344.059143,429.763092 319.349915,438.904419 
z"/>
<path fill="#212121" opacity="1.000000" stroke="none" 
	d="
M182.911285,436.777771 
	C183.003357,437.529999 183.006027,437.925262 183.017578,438.616760 
	C158.291397,430.489899 136.664505,416.847198 116.980431,399.377319 
	C117.136337,398.856842 117.449814,398.636414 117.899010,398.158875 
	C120.708855,397.518921 122.320877,399.400696 124.019730,400.877380 
	C139.942474,414.717834 157.931503,425.133850 177.327560,433.247253 
	C179.286499,434.066681 181.513916,434.459076 182.911285,436.777771 
z"/>
<path fill="#212121" opacity="1.000000" stroke="none" 
	d="
M163.657562,71.088501 
	C164.283325,71.338173 164.551743,71.635551 165.098114,72.057114 
	C165.256485,74.173393 163.712402,74.959480 162.241821,75.680527 
	C150.449356,81.462524 139.510071,88.568474 129.272018,96.775993 
	C128.225296,97.615120 127.095139,98.289978 125.348228,98.162186 
	C124.780159,97.737183 124.552834,97.448837 124.073669,97.039597 
	C135.685608,86.340546 149.259995,78.381706 163.657562,71.088501 
z"/>
<path fill="#212121" opacity="1.000000" stroke="none" 
	d="
M336.655090,72.547195 
	C336.962463,71.972427 337.306061,71.762451 337.816101,71.297455 
	C352.403717,77.682304 365.534637,86.355156 378.001038,96.632172 
	C377.864807,97.129845 377.562500,97.331978 377.127289,97.775749 
	C375.122253,98.775024 373.807861,97.621529 372.534790,96.607841 
	C362.399597,88.537636 351.614624,81.493904 339.962067,75.800293 
	C338.622559,75.145798 337.302307,74.416451 336.655090,72.547195 
z"/>
<path fill="#F5F4F4" opacity="1.000000" stroke="none" 
	d="
M336.265625,72.136093 
	C350.613251,79.557961 364.217499,87.538574 376.672241,97.909439 
	C395.771240,114.490776 412.098938,132.982773 424.106232,155.052460 
	C444.692474,192.890488 452.701508,233.160507 447.221466,275.944855 
	C441.059540,324.053131 419.644714,364.319794 384.101685,397.588135 
	C364.796204,414.617035 343.446991,427.739288 319.322784,436.970764 
	C296.046082,445.083771 272.458130,449.307648 248.132034,448.870209 
	C226.051758,448.473175 204.525803,444.840515 183.374588,437.156311 
	C159.300064,427.862244 137.574722,415.330048 118.350143,398.026062 
	C105.793846,385.860870 94.249352,373.248749 84.970978,358.692749 
	C60.929298,320.975861 50.138062,279.894745 53.864758,235.246094 
	C58.483086,179.915085 82.629189,134.593033 124.841660,98.313995 
	C137.509720,88.322151 150.518707,79.418610 165.153748,72.455978 
	C182.293808,64.837624 199.621582,58.936787 217.918915,55.933010 
	C258.590302,49.256203 297.564606,54.601051 334.986389,71.730797 
	C335.286865,71.868340 335.603394,71.970894 336.265625,72.136093 
z"/>
<path fill="#1F1B0A" opacity="1.000000" stroke="none" 
	d="
M286.449585,127.635651 
	C335.622314,143.519104 366.822845,176.249664 376.679260,226.460098 
	C388.582550,287.097656 359.027924,342.726166 302.741272,368.339813 
	C253.648178,390.679993 192.606094,379.300537 154.510803,335.618103 
	C130.387970,307.957367 119.964851,275.507568 123.265366,239.226501 
	C126.712143,201.337677 144.199753,170.629105 174.794296,147.806915 
	C205.847687,124.642441 240.809097,118.702080 278.396057,125.329124 
	C281.001404,125.788467 283.517029,126.756500 286.449585,127.635651 
z"/>
<path fill="#E86D8F" opacity="1.000000" stroke="none" 
	d="
M77.939835,213.053345 
	C75.871758,211.329468 71.180504,212.914597 72.539818,207.987213 
	C74.999626,199.070663 75.743675,198.275528 81.124016,198.721146 
	C87.833488,199.276871 94.589622,198.837296 101.281166,200.077911 
	C101.430588,199.696945 101.580009,199.315964 101.729431,198.934982 
	C96.235313,194.771469 90.736267,190.614441 85.248955,186.441986 
	C82.057350,184.015137 82.758873,174.306717 86.260384,172.304047 
	C87.473785,171.610046 88.501717,172.373688 89.562431,172.764542 
	C97.823097,175.808502 106.039024,178.981171 114.358124,181.855453 
	C117.392235,182.903748 117.000175,184.424423 116.202827,186.792053 
	C115.347565,189.331650 114.484314,190.148804 111.597672,189.160706 
	C105.382080,187.033051 99.483551,183.828568 92.477448,183.601471 
	C97.530334,187.484604 102.448296,191.563095 107.684792,195.180420 
	C111.030144,197.491364 111.415718,199.741272 110.134514,203.523529 
	C108.701195,207.754822 105.802818,207.067245 102.980621,206.678528 
	C96.575317,205.796265 90.168419,206.134171 83.506744,206.804535 
	C89.456055,209.061432 95.376602,211.398895 101.367920,213.538101 
	C103.999977,214.477890 105.667122,215.152649 104.428574,218.754654 
	C103.174118,222.402969 101.400558,221.792801 98.855476,220.821762 
	C92.026794,218.216339 85.162117,215.705261 77.939835,213.053345 
z"/>
<path fill="#E76D8F" opacity="1.000000" stroke="none" 
	d="
M397.908997,160.324829 
	C391.353760,161.909958 386.065247,166.359741 380.121979,169.570374 
	C377.385834,171.048477 376.058838,171.022690 374.250671,168.175629 
	C372.108032,164.801941 374.554169,164.210648 376.452606,163.095215 
	C383.759735,158.801865 391.132172,154.618164 398.394470,150.250885 
	C400.727936,148.847626 402.328033,148.798874 403.417358,151.556000 
	C403.597626,152.012222 403.897552,152.436432 404.206573,152.824127 
	C407.565857,157.038940 408.136261,160.763565 404.045380,165.327942 
	C399.643372,170.239548 396.254974,176.059647 392.358398,181.576721 
	C394.789764,182.532471 396.078339,180.482498 397.670380,179.632446 
	C402.211945,177.207504 406.665558,174.604599 411.048492,171.901016 
	C413.435974,170.428284 414.769470,170.831207 416.188751,173.287277 
	C417.668396,175.847748 416.918152,177.165054 414.649170,178.457870 
	C406.996887,182.817963 399.344452,187.181946 391.795105,191.715973 
	C389.491180,193.099670 388.675171,192.390854 387.149048,190.429871 
	C382.853577,184.910400 382.736389,180.211533 387.675110,174.833405 
	C391.576996,170.584412 394.487549,165.425125 397.908997,160.324829 
z"/>
<path fill="#E86E8F" opacity="1.000000" stroke="none" 
	d="
M326.991638,125.006439 
	C323.179810,123.217857 322.908173,121.292671 325.246185,118.068825 
	C330.024200,111.480408 334.471008,104.640808 338.812805,97.752472 
	C340.518433,95.046417 341.950470,94.431725 344.661011,96.437126 
	C348.799774,99.499214 353.317261,102.057991 357.386963,105.201958 
	C360.339630,107.483002 362.601624,110.559624 361.433868,114.679047 
	C360.311920,118.636848 357.891785,121.527756 353.479401,121.845741 
	C351.135864,122.014626 350.810303,122.754250 351.462585,124.957878 
	C352.924255,129.895752 348.668396,132.813431 346.732666,136.471329 
	C345.806396,138.221710 344.075256,136.371643 342.958344,135.579651 
	C341.756104,134.727112 339.491333,134.353745 340.691681,131.955414 
	C341.136658,131.066238 341.616302,130.191498 342.129059,129.339600 
	C345.814453,123.216507 344.354614,119.263550 337.746826,116.674271 
	C335.840088,115.927124 335.357147,117.061447 334.635712,118.080040 
	C333.195282,120.113861 331.810913,122.190277 330.477753,124.296181 
	C329.646820,125.608742 328.763672,126.335602 326.991638,125.006439 
z"/>
<path fill="#E76D8F" opacity="1.000000" stroke="none" 
	d="
M153.115585,125.948700 
	C151.977722,126.296021 151.159882,126.514877 150.477936,126.947807 
	C144.229645,130.914520 144.404358,130.807175 148.595428,136.758774 
	C149.769867,138.426559 153.452560,139.634872 151.067154,142.774857 
	C148.195267,146.555206 146.492020,146.464600 143.488617,142.702011 
	C138.308670,136.212708 133.174805,129.684921 127.888412,123.283257 
	C126.191330,121.228127 125.922935,119.836700 128.287399,118.085388 
	C132.555099,114.924408 136.533463,111.369125 140.836777,108.261101 
	C144.094681,105.908112 147.817459,104.834068 151.499527,107.432220 
	C154.872162,109.812019 156.728378,113.022339 155.395935,117.301712 
	C154.762222,119.336945 155.366882,119.986458 157.427597,119.908768 
	C162.952347,119.700478 164.609360,124.758308 167.538315,127.851654 
	C169.192276,129.598434 166.296112,130.350479 165.277954,131.412140 
	C163.828781,132.923248 162.493286,133.333298 160.682556,131.546539 
	C158.527405,129.419907 157.286469,125.990799 153.115585,125.948700 
z"/>
<path fill="#E86E90" opacity="1.000000" stroke="none" 
	d="
M213.565765,103.544601 
	C215.741943,98.410019 214.681335,96.652191 209.712128,96.840279 
	C207.071594,96.940224 204.452545,97.525284 201.815384,97.814842 
	C196.140213,98.437988 192.593155,96.343056 190.840851,91.400261 
	C189.223938,86.839310 190.965897,82.256950 195.723541,79.650131 
	C201.243179,76.625801 207.045609,74.587868 213.247025,77.740761 
	C215.587677,78.930779 218.581039,81.071915 217.099014,83.519539 
	C215.967834,85.387764 212.292877,86.385872 209.567200,83.931801 
	C208.164856,82.669189 206.525146,81.976990 204.531860,82.491707 
	C201.469971,83.282364 197.528366,83.714706 198.250580,87.970795 
	C198.959793,92.150215 202.594818,90.898560 205.555466,90.485909 
	C208.179260,90.120216 210.842346,90.017090 213.491745,89.859291 
	C217.246765,89.635643 219.980698,91.389885 221.492004,94.686569 
	C223.159729,98.324471 223.456451,102.061119 220.808899,105.513077 
	C217.129608,110.310272 205.829636,113.412025 200.236984,111.031326 
	C198.745407,110.396393 197.244858,109.473511 196.146912,108.307587 
	C194.989609,107.078651 192.900208,105.162773 194.561264,103.730782 
	C196.170715,102.343285 199.119675,100.555054 201.208679,102.980309 
	C205.128235,107.530731 209.097794,105.946114 213.565765,103.544601 
z"/>
<path fill="#E86D8F" opacity="1.000000" stroke="none" 
	d="
M191.024536,116.992607 
	C185.229004,119.974785 179.713699,122.700134 174.343124,125.685806 
	C171.853470,127.069885 170.666641,126.588348 169.426865,124.069168 
	C165.539642,116.170326 161.495056,108.345634 157.341797,100.582977 
	C156.032242,98.135368 156.289368,96.907707 158.918533,95.678284 
	C164.784714,92.935226 170.524979,89.916176 176.256424,86.895500 
	C178.202744,85.869736 179.534531,85.703842 180.606750,88.034027 
	C181.569687,90.126678 181.237274,91.370430 179.090164,92.381096 
	C175.484421,94.078369 172.040115,96.124969 168.407578,97.756813 
	C165.887619,98.888855 165.872589,100.220863 167.022156,102.415604 
	C168.195435,104.655563 169.304672,105.973389 171.972748,104.378052 
	C174.535263,102.845818 177.209518,101.481270 179.914322,100.212921 
	C181.701019,99.375092 183.599548,97.469231 185.328964,100.607918 
	C187.088455,103.801193 184.538040,104.218826 182.729935,105.190063 
	C180.241913,106.526550 177.833862,108.079216 175.219177,109.096062 
	C171.682678,110.471397 172.065155,112.286476 173.460342,115.194145 
	C174.983658,118.368866 176.469604,117.747139 178.816101,116.349663 
	C181.949524,114.483551 185.291275,112.964676 188.559769,111.329094 
	C190.145645,110.535522 191.619781,109.299606 193.043137,111.898819 
	C194.435165,114.440842 193.973602,115.887512 191.024536,116.992607 
z"/>
<path fill="#E86D8F" opacity="1.000000" stroke="none" 
	d="
M272.780609,73.058990 
	C284.179016,73.155045 284.141693,73.161774 286.031494,83.634682 
	C287.297272,90.649391 288.792969,97.624733 289.922272,104.659981 
	C290.119476,105.888535 292.097992,108.408012 289.363403,108.604874 
	C287.296143,108.753693 284.306152,109.206284 282.933685,106.248665 
	C282.071533,104.390747 283.023376,101.346733 280.413177,100.736435 
	C276.400879,99.798286 272.253174,99.310699 268.135284,99.008965 
	C266.203461,98.867409 265.730438,101.025795 264.910004,102.419823 
	C264.154877,103.702919 263.634583,104.914467 261.594879,104.729218 
	C256.611664,104.276627 256.070343,103.562675 258.454956,99.083733 
	C263.056702,90.440437 267.747131,81.844330 272.780609,73.058990 
z"/>
<path fill="#E76C8E" opacity="1.000000" stroke="none" 
	d="
M374.975922,125.993835 
	C377.856476,124.484962 380.359680,123.006119 382.576385,126.397827 
	C384.565033,129.440704 388.996399,131.218597 385.973969,136.430222 
	C381.565887,144.031219 377.965027,152.097321 373.872192,159.887466 
	C373.261444,161.049957 373.051483,164.088577 370.808380,162.457993 
	C369.094330,161.211990 366.266724,159.792908 367.349762,156.549088 
	C367.997040,154.610489 370.353088,152.769196 368.571533,150.636246 
	C365.917053,147.458267 362.948181,144.524185 359.937531,141.671631 
	C358.737640,140.534760 357.292419,141.752533 356.328644,142.425888 
	C352.273895,145.258759 350.684326,141.878464 348.874725,139.509460 
	C347.408112,137.589462 349.586517,137.464920 350.583435,137.008926 
	C358.582672,133.349808 366.608490,129.748795 374.975922,125.993835 
z"/>
<path fill="#E76D8F" opacity="1.000000" stroke="none" 
	d="
M304.182556,106.735718 
	C310.963989,112.962631 314.961853,112.239479 318.360504,104.349472 
	C320.461731,99.471588 322.367462,94.504898 324.211182,89.522629 
	C325.144348,87.000854 326.477325,86.727333 328.754761,87.851089 
	C330.760559,88.840805 332.785126,89.249680 331.398407,92.403557 
	C328.860596,98.175346 326.826385,104.167496 324.326141,109.957184 
	C322.132202,115.037544 318.225464,117.494316 312.478699,117.217857 
	C299.023804,116.570580 293.027618,107.598869 297.937531,95.207535 
	C299.589111,91.039513 301.221344,86.863487 302.817505,82.674011 
	C303.748932,80.229294 304.416351,78.075043 308.056458,79.577835 
	C311.333191,80.930611 311.292511,82.568314 310.123810,85.314949 
	C308.044495,90.201920 306.168854,95.179138 304.335968,100.165627 
	C303.602631,102.160698 302.759949,104.258453 304.182556,106.735718 
z"/>
<path fill="#E86D8F" opacity="1.000000" stroke="none" 
	d="
M126.513229,163.414825 
	C130.037720,165.039261 129.440750,166.796509 127.803734,169.349762 
	C125.926445,172.277786 124.206459,171.701889 122.310272,169.858582 
	C117.229416,164.919464 110.542152,166.056274 104.446037,165.049118 
	C100.236900,164.353714 95.959785,164.069855 91.633102,163.593277 
	C94.627480,156.585846 95.499428,156.132095 102.431152,157.438431 
	C105.807411,158.074692 109.207878,158.582535 113.028229,159.220459 
	C112.075455,154.980942 109.936638,151.894531 107.847694,149.109512 
	C104.226952,144.282318 105.279503,140.742844 109.939056,136.987946 
	C113.038284,143.128601 116.218292,149.114456 119.090996,155.244324 
	C120.704460,158.687164 122.799629,161.490372 126.513229,163.414825 
z"/>
<path fill="#E86E8F" opacity="1.000000" stroke="none" 
	d="
M240.546677,71.655792 
	C244.156891,71.371094 247.315567,71.233887 250.461609,70.954315 
	C252.739334,70.751907 253.791168,71.508644 253.913513,73.944931 
	C254.044235,76.547974 252.748215,77.084007 250.597076,77.013374 
	C249.434387,76.975197 248.260590,77.173103 247.103165,77.095390 
	C243.771301,76.871651 242.724030,78.410721 243.059906,81.614983 
	C243.718185,87.895065 244.141525,94.199554 244.687378,100.491753 
	C244.895813,102.894470 245.350464,105.192902 241.558655,105.116669 
	C238.812912,105.061470 236.897186,105.210152 236.822830,101.393974 
	C236.696762,94.924538 235.690567,88.475815 235.450607,82.003693 
	C235.306305,78.111366 233.458801,77.614326 230.331146,78.343224 
	C228.548965,78.758553 226.630951,79.315392 224.946945,78.492592 
	C223.567871,77.818794 224.113739,76.127312 224.030075,74.840935 
	C223.909531,72.987640 225.303726,72.603142 226.633499,72.506516 
	C231.113770,72.180969 235.603577,71.986763 240.546677,71.655792 
z"/>
<path fill="#E86E8F" opacity="1.000000" stroke="none" 
	d="
M423.332977,210.678574 
	C422.601379,205.221161 420.203033,204.164505 415.448029,206.092285 
	C410.072113,208.271790 404.358673,209.603394 398.874512,211.537598 
	C395.940918,212.572235 394.857544,211.648331 393.806702,208.853302 
	C392.592438,205.623444 394.017487,204.810760 396.586548,204.031433 
	C402.629913,202.198166 408.557770,199.936188 414.670776,198.397675 
	C418.535950,197.424881 418.682800,195.820145 417.619995,192.472000 
	C416.911255,190.239304 413.597626,186.861313 418.822113,185.333679 
	C420.540100,184.831345 421.574432,185.075195 422.178070,187.028748 
	C424.582520,194.810776 427.096954,202.559509 429.647919,210.295105 
	C430.238403,212.085754 429.807129,213.139404 428.056366,213.788086 
	C425.360138,214.787064 423.968933,213.701797 423.332977,210.678574 
z"/>
<path fill="#101010" opacity="1.000000" stroke="none" 
	d="
M74.112038,274.630951 
	C80.427727,274.147156 84.045280,271.179169 85.029297,264.354218 
	C86.208931,271.164398 90.373299,274.202881 96.619690,275.151337 
	C89.369087,275.876709 85.841957,279.721436 85.735382,287.619568 
	C84.969452,286.187286 84.482025,285.666595 84.419647,285.099182 
	C83.742264,278.936798 80.082642,276.136292 74.146866,275.822876 
	C73.991829,275.814697 73.711334,275.695312 73.713425,275.635651 
	C73.721825,275.396545 73.818657,275.160583 74.112038,274.630951 
z"/>
<path fill="#101010" opacity="1.000000" stroke="none" 
	d="
M407.131104,275.979492 
	C404.970184,275.949951 405.263062,274.533508 406.234528,274.469604 
	C412.267609,274.072937 415.288971,270.564484 416.746643,264.734131 
	C418.102234,270.615509 421.125977,274.287933 427.717834,274.935028 
	C420.746094,275.990570 417.316376,279.966522 416.751099,286.802734 
	C415.517029,281.269958 413.710999,276.707886 407.131104,275.979492 
z"/>
<path fill="#E97F9C" opacity="1.000000" stroke="none" 
	d="
M226.531616,418.526825 
	C224.308823,424.587830 220.439301,426.755829 215.900940,424.773834 
	C211.792496,422.979584 210.126755,418.078094 212.330307,413.827332 
	C213.924850,410.751404 216.519302,409.004944 220.060516,409.682800 
	C224.610764,410.553802 226.897171,413.442169 226.531616,418.526825 
z"/>
<path fill="#E97C9A" opacity="1.000000" stroke="none" 
	d="
M355.247253,376.232361 
	C358.375916,372.361267 361.622345,372.089752 365.097107,375.165619 
	C368.433319,378.118835 369.105560,382.711731 366.653290,385.798309 
	C363.976105,389.167969 359.943176,389.892059 356.531555,387.615723 
	C352.433502,384.881378 351.618011,380.630737 354.675171,376.080200 
	C356.472534,377.421326 356.067932,379.359253 356.389771,381.106354 
	C356.869537,383.710968 358.347473,385.408813 361.093292,385.155609 
	C363.390076,384.943817 364.583527,383.246460 364.402344,380.986908 
	C364.190521,378.344543 362.591187,376.834595 359.895508,376.621368 
	C358.437836,376.506042 356.948303,377.194366 355.247253,376.232361 
z"/>
<path fill="#E97C9A" opacity="1.000000" stroke="none" 
	d="
M332.245056,392.239868 
	C334.902893,388.668793 338.139526,389.158386 341.066040,391.719696 
	C344.248138,394.504700 345.416077,398.241852 343.076965,402.003601 
	C341.240326,404.957245 338.340820,406.669464 334.537170,405.255829 
	C330.607788,403.795410 328.234009,399.758453 328.977844,395.759247 
	C329.262024,394.231323 329.908508,392.930756 331.643555,392.027649 
	C333.397156,393.631409 332.111053,395.494598 332.431458,397.232635 
	C332.888123,399.709778 334.076630,401.710236 336.725861,401.972900 
	C338.798706,402.178436 340.199951,400.788147 340.379333,398.725098 
	C340.605164,396.127625 339.364929,394.290649 336.796600,393.504547 
	C335.389496,393.073914 333.809204,393.348480 332.245056,392.239868 
z"/>
<path fill="#E97C9A" opacity="1.000000" stroke="none" 
	d="
M375.257812,357.235657 
	C376.606262,353.006409 379.577820,353.503906 382.587402,354.942505 
	C386.696716,356.906738 388.222626,360.963654 386.545197,364.844208 
	C384.183655,370.307373 381.994049,370.812378 377.551697,366.926727 
	C376.432556,365.947815 375.391327,364.840454 374.151459,364.046356 
	C370.188660,361.508301 370.250214,359.165314 374.659790,356.915833 
	C375.567169,359.541138 376.192017,362.009186 378.692139,363.529053 
	C380.073059,364.368530 381.391968,366.081543 382.881683,364.143585 
	C384.273712,362.332672 383.720123,360.402771 382.125946,358.804840 
	C380.224060,356.898560 377.730042,357.905670 375.257812,357.235657 
z"/>
<path fill="#E97F9C" opacity="1.000000" stroke="none" 
	d="
M268.028687,425.407349 
	C267.301941,424.100281 267.017700,422.983185 268.698425,423.366730 
	C269.740509,423.604523 270.544708,424.828369 271.591339,425.116089 
	C273.063721,425.520813 274.773682,425.365051 275.426605,423.673615 
	C276.188660,421.699524 274.508423,421.079956 273.120789,420.535309 
	C272.204102,420.175476 271.171753,420.121918 270.227081,419.819244 
	C268.128113,419.146729 266.744690,417.862000 266.928436,415.459137 
	C267.115509,413.012054 268.651215,411.985809 270.926544,411.886627 
	C273.254333,411.785095 275.538025,411.832367 275.896057,414.905029 
	C274.597351,415.759491 274.226257,414.742554 273.565277,414.386993 
	C272.009979,413.550262 270.072998,413.082520 269.299866,415.040344 
	C268.429810,417.243622 270.369995,417.701324 272.102264,418.108612 
	C274.722931,418.724762 277.501129,419.398438 277.820923,422.740509 
	C278.019806,424.818848 276.688751,426.307159 274.798523,426.819000 
	C272.540649,427.430389 270.162018,427.632324 268.028687,425.407349 
z"/>
<path fill="#EA839F" opacity="1.000000" stroke="none" 
	d="
M170.451782,408.330902 
	C167.711304,403.827637 168.506546,400.014130 171.921982,396.816223 
	C174.563873,394.342590 177.656143,394.392639 180.616272,396.369324 
	C182.762085,397.802277 184.007675,399.732819 183.299667,403.434174 
	C180.446503,399.987823 179.202042,394.398102 173.782089,398.066040 
	C171.192932,399.818268 170.257446,402.580414 171.233826,405.540558 
	C172.658813,409.860687 176.222137,408.820465 179.541275,408.516418 
	C176.641327,412.272675 173.688568,410.664795 170.451782,408.330902 
z"/>
<path fill="#E97F9C" opacity="1.000000" stroke="none" 
	d="
M387.888062,338.989502 
	C388.427185,335.176270 390.186554,333.587036 393.780060,334.007538 
	C393.693207,335.840973 392.690552,335.716003 391.972198,335.977753 
	C390.028961,336.685822 389.273895,338.117096 390.370850,339.842987 
	C391.569885,341.729523 392.920715,340.428558 394.105042,339.514252 
	C394.629150,339.109589 395.115997,338.652252 395.662140,338.281189 
	C397.751343,336.861664 399.900055,336.168549 401.895477,338.357269 
	C403.603912,340.231171 403.347656,342.283478 402.056702,344.285461 
	C400.401245,346.852722 398.963287,347.222687 395.691467,345.980164 
	C395.775696,345.098083 396.451355,344.992340 397.108643,344.974548 
	C399.215302,344.917450 400.559570,343.915375 400.944061,341.831390 
	C401.138824,340.775787 400.767914,339.775848 399.710449,339.384155 
	C397.806885,338.679077 396.614716,340.121613 395.363068,341.119507 
	C392.101898,343.719543 389.412903,344.170776 387.888062,338.989502 
z"/>
<path fill="#E97F9C" opacity="1.000000" stroke="none" 
	d="
M248.331696,428.245972 
	C242.499680,428.342865 241.015961,427.009033 240.918091,421.911041 
	C240.863312,419.058044 240.908249,416.203156 241.642487,413.339447 
	C243.543320,415.487549 242.910110,417.933228 242.920227,420.228699 
	C242.933075,423.144653 242.654785,426.562866 246.583069,426.570038 
	C250.709167,426.577576 249.962448,422.879913 250.096130,420.149445 
	C250.185501,418.323608 250.184402,416.493317 250.272552,414.667419 
	C250.306747,413.959503 250.704468,413.339294 251.443420,413.348846 
	C251.808640,413.353546 252.319092,413.802094 252.504089,414.177704 
	C253.723618,416.653625 251.053101,426.290588 248.331696,428.245972 
z"/>
<path fill="#EA839F" opacity="1.000000" stroke="none" 
	d="
M119.847328,368.465485 
	C114.153603,363.981567 114.152397,363.980225 119.158371,359.468445 
	C119.894180,358.805267 120.628319,358.137909 121.396095,357.512817 
	C126.961426,352.981995 128.164719,353.357361 131.516479,360.674561 
	C130.001999,361.199982 129.556686,359.813721 128.799469,359.110321 
	C125.387794,355.941223 124.923080,356.065765 123.726311,360.873962 
	C123.553574,361.567932 123.607918,361.837799 122.706726,361.951569 
	C117.183296,362.648682 117.136139,362.801819 120.113754,367.463104 
	C120.221626,368.019653 120.209251,368.252747 119.847328,368.465485 
z"/>
<path fill="#E97F9C" opacity="1.000000" stroke="none" 
	d="
M314.432861,401.834595 
	C313.439575,402.401703 312.695648,402.755432 311.931183,403.057068 
	C310.227509,403.729340 308.377594,404.162811 309.311310,406.805450 
	C310.285217,409.561798 311.932068,408.475555 313.606628,407.815216 
	C314.175293,407.591003 314.790436,407.484619 315.523132,407.286957 
	C315.442932,407.538879 312.348145,417.260071 312.109009,418.011200 
	C309.143890,413.511292 307.748657,408.885651 306.469757,404.303467 
	C306.025604,402.712158 312.131195,400.732269 314.432861,401.834595 
z"/>
<path fill="#E97C9A" opacity="1.000000" stroke="none" 
	d="
M112.130424,334.581055 
	C115.469330,337.741760 117.014130,341.295410 113.754654,345.043579 
	C110.898438,348.328033 107.306854,349.529175 103.213348,346.211945 
	C103.725426,345.239319 104.334488,345.042969 104.981056,344.937317 
	C112.522034,343.704834 112.913582,343.148193 111.375023,335.596924 
	C111.546494,335.036865 111.660233,334.826843 112.130424,334.581055 
z"/>
<path fill="#E97C9A" opacity="1.000000" stroke="none" 
	d="
M101.839127,344.481750 
	C98.349190,341.885284 98.492142,339.809906 102.201599,337.916992 
	C104.513985,336.737030 106.640709,335.194458 108.857796,333.826050 
	C109.977364,333.135010 111.118599,332.275452 112.331070,334.235474 
	C112.360443,334.669373 112.233994,334.793457 111.917114,335.102844 
	C109.118324,338.346252 104.209572,338.845306 102.718918,343.612976 
	C102.464432,344.143524 102.328743,344.339966 101.839127,344.481750 
z"/>
<path fill="#EA839F" opacity="1.000000" stroke="none" 
	d="
M197.747345,405.055664 
	C198.766663,404.069061 199.820786,404.246368 199.537109,405.258575 
	C198.246307,409.864349 197.036133,414.538422 194.688095,418.735931 
	C194.175491,418.575928 193.662872,418.415924 193.150269,418.255920 
	C194.619324,413.956512 196.088379,409.657135 197.747345,405.055664 
z"/>
<path fill="#E97F9C" opacity="1.000000" stroke="none" 
	d="
M135.306152,378.285645 
	C138.003143,375.964691 139.221146,372.640594 142.998123,370.751678 
	C141.440857,376.325134 136.539551,378.674469 134.476578,382.953064 
	C134.403259,383.105103 133.486694,383.052551 133.156494,382.820404 
	C132.843918,382.600586 132.518494,381.841370 132.661346,381.625549 
	C133.378311,380.542267 134.246994,379.559448 135.306152,378.285645 
z"/>
<path fill="#E97F9C" opacity="1.000000" stroke="none" 
	d="
M160.525436,387.493408 
	C157.925629,391.191010 155.516647,394.584625 153.107666,397.978241 
	C152.707840,397.696686 152.308014,397.415100 151.908188,397.133545 
	C153.746246,392.808289 156.671265,389.064148 159.756485,385.593567 
	C160.780121,384.442078 160.896957,386.269562 160.525436,387.493408 
z"/>
<path fill="#E97F9C" opacity="1.000000" stroke="none" 
	d="
M137.997253,384.934235 
	C138.507217,385.760559 139.519608,386.805145 138.104080,386.743713 
	C136.930801,386.692810 135.248093,385.825348 135.774902,384.126251 
	C135.984802,383.449280 137.100189,384.317139 137.997253,384.934235 
z"/>
<path fill="#EA839F" opacity="1.000000" stroke="none" 
	d="
M120.048294,367.949341 
	C120.660446,368.380768 121.528290,369.416595 121.444496,369.500427 
	C120.672035,370.272552 120.163391,369.648895 119.620972,368.699402 
	C119.497780,368.445129 119.862572,368.112152 120.048294,367.949341 
z"/>
<path fill="#E97C9A" opacity="1.000000" stroke="none" 
	d="
M103.008301,345.982788 
	C102.442444,345.768280 102.079124,345.350403 101.600510,344.679779 
	C101.485199,344.427032 101.866501,344.107513 102.060730,343.952118 
	C102.925476,343.814514 103.308258,344.209991 103.584007,345.078552 
	C103.479950,345.507233 103.345398,345.643341 103.008301,345.982788 
z"/>
<path fill="#EA839F" opacity="1.000000" stroke="none" 
	d="
M125.158386,363.639832 
	C125.540634,363.902008 125.676529,364.237061 125.812424,364.572083 
	C125.570229,364.592987 125.328026,364.613922 124.931084,364.421509 
	C124.821571,364.042999 124.866798,363.877838 125.158386,363.639832 
z"/>
<path fill="#EA839F" opacity="1.000000" stroke="none" 
	d="
M124.936951,364.051331 
	C124.636192,363.870972 124.496040,363.533783 124.355896,363.196564 
	C124.588570,363.187408 124.821236,363.178223 125.229324,363.368042 
	C125.404732,363.566986 125.097565,363.894470 124.936951,364.051331 
z"/>
<path fill="#F3C424" opacity="1.000000" stroke="none" 
	d="
M189.809509,361.293793 
	C156.614960,342.019379 134.876907,314.185364 127.722900,276.848877 
	C118.059433,226.415649 133.485184,184.021194 173.699402,151.682983 
	C199.317139,131.082504 229.289276,122.380829 261.923401,125.373451 
	C297.538361,128.639404 327.621704,144.123108 349.494965,172.576324 
	C381.514771,214.228363 385.989349,259.804169 363.735474,307.286926 
	C342.258026,353.112976 290.336273,381.492065 239.909348,376.548401 
	C222.243652,374.816467 205.759613,369.671570 189.809509,361.293793 
z"/>
<path fill="#F5F4F4" opacity="1.000000" stroke="none" 
	d="
M81.568054,205.577194 
	C81.491783,205.608704 81.644318,205.545685 81.568054,205.577194 
z"/>
<path fill="#F5F4F4" opacity="1.000000" stroke="none" 
	d="
M397.987793,159.987793 
	C398.087128,159.752548 398.194641,159.525558 398.302185,159.298553 
	C398.341278,159.495544 398.380371,159.692535 398.214447,159.948669 
	C398.009430,160.007843 397.996002,159.996063 397.987793,159.987793 
z"/>
<path fill="#F5EFF1" opacity="1.000000" stroke="none" 
	d="
M341.165283,108.270462 
	C342.807251,106.737968 342.913879,102.990059 345.803375,104.664772 
	C348.810059,106.407356 352.673126,107.619995 353.591797,111.750992 
	C353.716187,112.310349 353.377655,113.056480 353.068695,113.613640 
	C351.853088,115.805840 349.867188,117.888771 347.603058,116.078796 
	C345.053528,114.040649 338.810944,114.819328 341.165283,108.270462 
z"/>
<path fill="#F5F1F2" opacity="1.000000" stroke="none" 
	d="
M142.841751,125.728409 
	C138.343231,127.342850 138.181564,123.036598 136.476990,121.236351 
	C134.840424,119.507912 137.442627,118.618675 138.554657,117.615562 
	C139.530167,116.735588 140.567749,115.913177 141.641953,115.156265 
	C143.908188,113.559441 146.227951,113.054970 148.153854,115.585892 
	C149.936279,117.928276 149.587708,120.201630 147.346802,122.110634 
	C145.969849,123.283630 144.523575,124.375237 142.841751,125.728409 
z"/>
<path fill="#F5EFF1" opacity="1.000000" stroke="none" 
	d="
M273.085205,93.442245 
	C271.458405,93.038513 269.863220,93.057632 270.980591,90.962906 
	C272.985138,87.204987 274.925415,83.412773 277.508392,78.452232 
	C278.248779,82.240730 278.729645,84.722939 279.219391,87.203400 
	C280.666107,94.530594 280.667480,94.530319 273.085205,93.442245 
z"/>
<path fill="#F5ECEE" opacity="1.000000" stroke="none" 
	d="
M378.627930,132.910217 
	C377.612457,137.591705 375.026215,141.568481 372.822906,145.851013 
	C364.183807,138.647278 364.179626,138.637543 373.657715,134.573990 
	C375.167877,133.926529 376.734650,133.411102 378.627930,132.910217 
z"/>
<path fill="#F5ECEE" opacity="1.000000" stroke="none" 
	d="
M379.017334,133.018372 
	C379.175690,133.075958 378.802795,132.282059 379.133423,132.928467 
	C378.980591,132.985794 379.005829,133.006210 379.017334,133.018372 
z"/>
<path fill="#F5EFF1" opacity="1.000000" stroke="none" 
	d="
M216.825043,423.007996 
	C215.953445,422.457336 215.282654,422.140717 214.955460,421.611603 
	C213.102478,418.615143 213.115585,415.588501 215.529388,412.957336 
	C217.306091,411.020569 219.582397,410.856262 221.850693,412.289307 
	C224.833374,414.173706 224.712540,417.126312 223.826035,419.830139 
	C222.838760,422.841248 220.539368,424.326324 216.825043,423.007996 
z"/>
<path fill="#F5F1F2" opacity="1.000000" stroke="none" 
	d="
M354.993896,376.008820 
	C356.238129,376.609070 357.170471,375.623291 358.256104,375.361145 
	C361.867981,374.488983 365.400970,376.787964 365.956299,380.474121 
	C366.497833,384.068665 364.691315,386.281982 361.277954,386.892944 
	C358.164551,387.450287 354.954285,384.305420 354.813354,380.778687 
	C354.761108,379.471680 355.099609,378.149078 355.136383,376.407196 
	C355.012848,375.980804 355.006439,376.005920 354.993896,376.008820 
z"/>
<path fill="#F5F1F2" opacity="1.000000" stroke="none" 
	d="
M331.994293,392.009033 
	C334.081177,392.577698 336.308838,391.156311 338.315643,392.256866 
	C341.228607,393.854309 342.606873,396.466492 341.914429,399.721619 
	C341.320831,402.512054 338.984009,404.004395 336.380768,403.685303 
	C333.367828,403.316010 331.569305,401.011292 330.965759,397.976593 
	C330.587219,396.073242 331.362640,394.411102 332.101593,392.377289 
	C332.015442,391.979767 332.007111,392.005432 331.994293,392.009033 
z"/>
<path fill="#F5EFF1" opacity="1.000000" stroke="none" 
	d="
M374.995972,357.014801 
	C380.839325,355.263611 385.376648,357.606964 385.225494,362.294861 
	C385.160980,364.296417 384.269318,365.900665 382.599792,366.849091 
	C380.875671,367.828522 379.901520,366.171478 378.787964,365.287170 
	C377.615540,364.356049 376.651672,363.082428 375.364044,362.392670 
	C372.553955,360.887390 373.907684,359.307220 375.013733,357.311188 
	C375.018524,356.982452 375.009674,357.010040 374.995972,357.014801 
z"/>
<path fill="#F5EFF1" opacity="1.000000" stroke="none" 
	d="
M103.949005,345.566284 
	C103.301399,344.951965 102.988312,344.532745 102.465088,343.955139 
	C101.643272,342.288239 100.843079,340.888916 103.086067,339.808594 
	C105.846069,338.479126 108.044807,336.129669 111.398201,335.256989 
	C112.656097,337.920959 115.173752,340.397491 112.656021,343.393280 
	C110.420959,346.052734 107.574295,346.739075 103.949005,345.566284 
z"/>
<path fill="#4F473D" opacity="1.000000" stroke="none" 
	d="
M232.504684,299.651215 
	C231.946320,297.187225 233.223251,294.608337 229.806381,293.611847 
	C209.581985,287.713623 198.524551,273.007660 192.989639,253.714493 
	C187.592606,234.901978 187.611588,216.093811 197.106842,198.400452 
	C211.806946,171.008377 249.898849,156.345490 279.245575,173.831406 
	C286.976227,178.437622 293.065948,184.866653 297.798645,192.412003 
	C305.705078,205.017273 313.701294,218.175659 312.819000,233.475311 
	C311.506775,256.230835 302.760773,275.503296 280.732635,285.986725 
	C277.485779,287.531921 276.262848,289.532013 276.221558,292.811737 
	C276.179626,296.142365 275.932434,299.472137 275.951630,302.801239 
	C275.965851,305.265411 275.015259,308.452759 279.835022,307.402008 
	C281.800842,306.973450 282.529755,312.103973 280.786041,314.868622 
	C277.115936,320.687347 278.086609,324.660400 284.004974,327.900787 
	C285.024139,328.458801 286.152313,328.819305 287.165192,329.386932 
	C289.046265,330.441101 290.320648,332.018158 289.933228,334.257263 
	C289.450653,337.046082 287.068451,335.948364 285.462585,335.992371 
	C280.185150,336.136993 274.449310,337.227997 272.217896,330.287048 
	C269.605164,331.667847 273.002075,335.695770 268.543365,335.854736 
	C261.498199,336.105896 261.556366,336.065155 262.339111,329.131165 
	C263.585144,318.093292 264.966370,307.025787 264.091400,295.852661 
	C263.937897,293.892883 263.813171,292.847046 261.243866,293.397705 
	C256.704071,294.370758 252.071274,295.146606 247.443466,295.411163 
	C241.846466,295.731171 244.097931,299.763977 243.917084,302.391724 
	C243.763748,304.619812 242.735992,307.992767 247.498764,307.373993 
	C249.916718,307.059814 250.871017,311.838867 249.048035,314.762817 
	C245.188675,320.953033 246.098083,324.528564 252.424530,327.973297 
	C253.154297,328.370728 253.931458,328.680084 254.676514,329.050629 
	C256.749420,330.081482 258.431213,331.544556 258.011505,334.057587 
	C257.508850,337.067139 254.915176,335.875000 253.134903,336.005188 
	C247.841888,336.392273 242.627762,336.398315 240.238449,330.209869 
	C237.739899,331.655060 240.998672,335.618286 236.622467,335.840027 
	C230.016937,336.174744 229.975372,335.855621 230.497162,329.302612 
	C231.271698,319.575134 233.174042,309.909180 232.504684,299.651215 
z"/>
<path fill="#E5688A" opacity="1.000000" stroke="none" 
	d="
M203.164398,233.124634 
	C201.932846,231.362137 200.815231,229.909683 199.800018,228.388870 
	C194.560730,220.540176 194.644836,215.446548 200.339539,207.853882 
	C202.232559,205.329956 204.443237,203.040482 206.554840,200.685211 
	C210.079071,196.754257 212.918442,192.631149 212.324692,186.893829 
	C212.129410,185.006851 212.537033,182.955276 214.413193,181.575089 
	C234.995880,166.433823 260.360992,162.915375 281.255951,177.848083 
	C294.985077,187.659698 301.659943,202.338898 307.872559,217.461014 
	C317.193237,240.148331 303.126984,277.320160 275.157562,285.801788 
	C265.904816,288.607666 255.194778,287.036072 245.179657,286.674194 
	C241.528748,286.542267 238.958771,282.966522 237.370865,279.525635 
	C235.840744,276.209991 233.383728,274.942108 229.832001,274.936615 
	C226.685104,274.931732 223.542755,274.411774 220.391617,274.268127 
	C208.945663,273.746399 205.024261,263.854065 205.494568,255.005554 
	C205.669540,251.713852 206.371902,248.408646 207.202744,245.205292 
	C207.994705,242.151825 207.978683,239.306091 206.305389,236.234985 
	C204.722504,235.549698 203.857803,234.650131 203.164398,233.124634 
z"/>
<path fill="#DDA173" opacity="1.000000" stroke="none" 
	d="
M204.790466,236.928223 
	C206.627869,242.135117 204.393173,246.733246 203.618805,251.400116 
	C201.053726,266.858887 209.061401,276.799622 224.667374,276.852722 
	C230.051956,276.871063 234.239670,277.367157 237.306717,283.084747 
	C240.190155,288.460114 245.806152,290.802765 252.330841,289.194611 
	C257.002502,288.043182 261.701263,287.129028 266.391968,289.455109 
	C258.608917,291.098694 250.988174,295.725159 241.669952,290.593384 
	C241.669952,293.910736 241.735703,297.417297 241.649338,300.920135 
	C241.579117,303.767639 241.033936,306.342804 237.234055,306.099213 
	C233.482178,305.858734 235.193344,302.935974 234.967484,301.179840 
	C234.423477,296.949799 234.230789,292.674561 233.506561,287.805267 
	C231.931030,293.206146 228.822418,291.249847 225.970627,290.164795 
	C212.530060,285.050964 203.940765,275.046692 198.285553,262.260803 
	C191.821686,247.646576 190.130402,230.737305 193.597427,215.868622 
	C193.404312,223.662231 197.206467,229.535217 202.687683,234.911011 
	C203.908371,235.204391 204.438278,235.769135 204.790466,236.928223 
z"/>
<path fill="#E4B926" opacity="1.000000" stroke="none" 
	d="
M234.737152,309.169250 
	C236.163162,308.400970 238.427612,307.878357 237.720718,309.564606 
	C236.638916,312.145111 238.518066,313.679138 238.509415,315.657410 
	C238.486526,320.901550 240.753204,324.902527 244.473511,328.335236 
	C245.249283,329.051025 246.479980,329.994720 245.220764,331.250092 
	C243.705048,332.761200 243.233353,330.835205 242.614700,330.182709 
	C241.073639,328.557220 239.368011,327.229523 237.144852,326.935944 
	C232.970444,326.384735 232.421188,323.579803 233.233093,320.367798 
	C234.144058,316.763855 234.068893,313.106476 234.737152,309.169250 
z"/>
<path fill="#E5BA26" opacity="1.000000" stroke="none" 
	d="
M269.226013,312.837769 
	C270.741455,318.962341 271.780823,324.853851 276.698914,328.986511 
	C277.524231,329.680023 277.700836,330.891418 276.685455,331.543396 
	C275.864624,332.070435 275.227295,331.173462 274.727448,330.530548 
	C273.361847,328.774231 271.655762,327.291748 269.467255,327.057312 
	C264.704102,326.547089 264.586670,323.494415 265.107025,319.901917 
	C265.484863,317.293365 265.932281,314.687622 266.139221,312.064117 
	C266.287476,310.184326 266.171051,307.816895 268.780640,308.448517 
	C271.622467,309.136353 267.945007,311.156189 269.226013,312.837769 
z"/>
<path fill="#DBA072" opacity="1.000000" stroke="none" 
	d="
M272.393341,290.065033 
	C275.507751,294.621216 273.759766,299.507294 273.386047,304.212433 
	C273.233002,306.139069 270.530701,306.060699 268.700195,306.075531 
	C266.687531,306.091827 266.936646,304.517365 266.796417,303.236237 
	C266.651764,301.914825 266.623199,300.567139 266.335785,299.277313 
	C265.241364,294.365509 266.241547,290.808289 272.393341,290.065033 
z"/>
<path fill="#DBA072" opacity="1.000000" stroke="none" 
	d="
M200.286713,204.313614 
	C198.378311,206.721436 196.706924,208.862000 195.035522,211.002579 
	C197.370102,201.299530 201.663406,192.874008 209.654541,185.888870 
	C210.518265,189.693176 210.287827,192.721664 208.003571,195.411530 
	C205.538773,198.313980 203.019333,201.170059 200.286713,204.313614 
z"/>
<path fill="#E5BA26" opacity="1.000000" stroke="none" 
	d="
M251.744904,330.116150 
	C253.471939,331.013947 255.232590,331.346344 255.789230,333.432648 
	C254.405563,334.346252 252.906006,334.053162 251.563629,333.938263 
	C250.081512,333.811371 247.579483,334.913452 247.381897,332.821777 
	C247.216614,331.072021 249.322601,329.988098 251.744904,330.116150 
z"/>
<path fill="#E5BA26" opacity="1.000000" stroke="none" 
	d="
M285.767090,331.096680 
	C286.908569,332.205078 288.861633,333.213348 285.982758,333.963593 
	C285.522278,334.083557 285.000244,334.039032 284.516327,333.984650 
	C282.785034,333.790070 280.829956,334.630890 279.374054,333.305237 
	C278.642822,332.639374 279.540771,331.854431 280.101257,331.280090 
	C281.769684,329.570465 283.568817,329.765900 285.767090,331.096680 
z"/>
<path fill="#D4AD28" opacity="1.000000" stroke="none" 
	d="
M264.268433,330.461365 
	C264.801819,328.006134 266.004089,328.024658 267.663971,328.748871 
	C269.378845,329.497040 268.895203,330.911926 268.851807,332.146332 
	C268.793243,333.812897 267.462891,333.670685 266.302002,333.716248 
	C264.164490,333.800018 263.797668,332.605103 264.268433,330.461365 
z"/>
<path fill="#D4AD28" opacity="1.000000" stroke="none" 
	d="
M232.707733,329.772675 
	C233.836075,327.099548 235.386292,328.297424 236.403870,329.136169 
	C237.515106,330.052155 237.212051,331.663116 236.724640,332.849548 
	C236.164810,334.212250 234.694427,333.809113 233.636047,333.629059 
	C231.149368,333.206116 232.357910,331.492706 232.707733,329.772675 
z"/>
<path fill="#534246" opacity="1.000000" stroke="none" 
	d="
M205.009613,236.963547 
	C204.327301,236.686111 203.772079,236.148270 203.098602,235.345337 
	C202.986877,234.584488 202.993378,234.088715 203.001526,233.219543 
	C203.939957,233.694550 204.876709,234.542969 205.920532,235.690247 
	C205.730637,236.227112 205.433670,236.465118 205.009613,236.963547 
z"/>
<path fill="#4E4540" opacity="1.000000" stroke="none" 
	d="
M276.016022,227.004196 
	C276.081818,235.029663 267.493805,244.555313 260.003448,244.942688 
	C255.077988,245.197403 251.755890,241.324921 248.337921,238.852112 
	C242.132996,234.363037 242.456772,226.903549 243.131744,220.094330 
	C243.661102,214.754074 247.134308,211.497284 252.597015,210.625778 
	C253.905029,210.417114 255.184052,210.032425 256.482941,209.759766 
	C268.730804,207.188690 274.117767,210.912155 275.715118,223.065933 
	C275.866852,224.220322 275.905548,225.389572 276.016022,227.004196 
z"/>
<path fill="#4B4445" opacity="1.000000" stroke="none" 
	d="
M243.240906,189.239716 
	C240.221771,188.657990 235.638123,190.785172 235.427338,186.907791 
	C235.210953,182.927811 240.054169,182.676620 243.382751,181.989685 
	C243.855515,181.892136 244.374176,181.978699 244.867386,182.024902 
	C247.459503,182.267746 250.332687,182.986404 250.511032,185.802322 
	C250.673691,188.370636 247.777191,188.604355 245.297745,188.984222 
	C244.554474,189.378052 244.099762,189.536713 243.240906,189.239716 
z"/>
<path fill="#4B4445" opacity="1.000000" stroke="none" 
	d="
M261.892395,181.009933 
	C265.030945,181.845001 269.323151,181.781586 268.812988,185.526688 
	C268.368927,188.786697 264.226532,188.088242 261.573578,188.009293 
	C258.896393,187.929611 254.449615,189.759033 254.088913,185.731110 
	C253.711533,181.516937 258.232117,181.462708 261.892395,181.009933 
z"/>
<path fill="#534246" opacity="1.000000" stroke="none" 
	d="
M252.741669,201.482895 
	C254.608994,199.471664 254.577484,195.604507 259.329163,196.250641 
	C264.565125,196.962616 265.032166,196.765564 263.147888,202.966339 
	C261.211029,201.893875 262.535278,199.822769 261.563232,198.502090 
	C258.423767,198.651474 256.232849,201.637039 252.741669,201.482895 
z"/>
<path fill="#F3DDE3" opacity="1.000000" stroke="none" 
	d="
M291.296234,249.069702 
	C292.381165,246.993393 291.256256,244.588348 293.198303,243.260376 
	C293.416473,243.111206 294.350372,243.464752 294.375763,243.660126 
	C294.698212,246.140381 294.022583,248.504974 293.321381,250.844818 
	C293.128021,251.490036 292.554260,252.033096 291.817871,251.645615 
	C290.936584,251.181839 291.142242,250.265106 291.296234,249.069702 
z"/>
<path fill="#534246" opacity="1.000000" stroke="none" 
	d="
M253.319077,191.178467 
	C254.525528,189.153534 255.891907,188.740082 257.363373,190.331238 
	C258.307739,191.352402 258.101257,192.518661 256.891113,193.190720 
	C255.018082,194.230850 253.824768,193.442719 253.319077,191.178467 
z"/>
<path fill="#534246" opacity="1.000000" stroke="none" 
	d="
M243.056091,189.384186 
	C243.367371,189.014038 243.812363,188.998489 244.590439,188.978424 
	C245.387863,193.404892 243.786667,194.909027 239.239288,194.195450 
	C239.842163,192.046188 243.450333,192.554077 243.056091,189.384186 
z"/>
<path fill="#F2D5DD" opacity="1.000000" stroke="none" 
	d="
M243.109436,272.131897 
	C244.732010,272.258362 246.404846,271.733612 246.716492,273.479523 
	C246.935654,274.707397 245.686539,274.996857 244.697128,274.915955 
	C243.176147,274.791534 241.050354,275.636902 240.410416,273.692108 
	C239.890167,272.111145 241.667572,272.303894 243.109436,272.131897 
z"/>
<path fill="#F2B634" opacity="1.000000" stroke="none" 
	d="
M220.143890,222.294495 
	C219.163040,225.360260 216.415314,224.187805 214.252792,224.624237 
	C214.009628,224.673325 213.450607,224.062332 213.340057,223.671890 
	C213.122437,222.903320 213.703445,222.338272 214.358856,222.284576 
	C216.167694,222.136383 217.989914,222.151581 220.143890,222.294495 
z"/>
<path fill="#F2D5DD" opacity="1.000000" stroke="none" 
	d="
M277.300659,276.384766 
	C277.914307,275.093536 277.818390,273.117218 279.169373,273.548004 
	C280.948395,274.115326 279.848999,276.048523 279.857635,277.371307 
	C279.864471,278.417847 279.901215,280.045807 278.199738,279.684265 
	C276.714386,279.368713 277.254272,277.853149 277.300659,276.384766 
z"/>
<path fill="#F2B634" opacity="1.000000" stroke="none" 
	d="
M288.195435,264.908997 
	C288.150848,262.541077 290.947021,260.415924 292.689819,261.257294 
	C294.076385,261.926697 293.610352,262.884460 292.646362,263.390259 
	C291.366577,264.061798 289.929352,264.433258 288.195435,264.908997 
z"/>
<path fill="#F2D5DD" opacity="1.000000" stroke="none" 
	d="
M216.006897,208.805710 
	C215.503540,207.101624 214.458511,205.741013 215.718246,204.367676 
	C215.887421,204.183228 216.829010,204.320602 216.984680,204.573044 
	C218.011200,206.237701 219.236526,208.287125 218.465515,209.982422 
	C217.652496,211.770050 216.777039,209.951416 216.006897,208.805710 
z"/>
<path fill="#F3DDE3" opacity="1.000000" stroke="none" 
	d="
M298.036865,212.722443 
	C296.253815,211.710892 294.111023,211.768494 293.357330,209.438889 
	C295.967163,208.426727 297.875854,209.632767 299.435089,211.270554 
	C300.228424,212.103867 299.271881,212.648849 298.036865,212.722443 
z"/>
<path fill="#F2B634" opacity="1.000000" stroke="none" 
	d="
M229.254013,214.496857 
	C231.532822,211.980423 231.743317,213.847382 231.804108,215.433563 
	C231.850067,216.632233 232.350906,218.724609 230.702621,218.697601 
	C228.273621,218.657806 229.335556,216.324432 229.254013,214.496857 
z"/>
<path fill="#F3DDE3" opacity="1.000000" stroke="none" 
	d="
M204.405182,218.453644 
	C201.789200,217.231995 202.200439,216.109848 206.147919,213.451675 
	C207.091156,215.527451 205.166077,216.657593 204.405182,218.453644 
z"/>
<path fill="#F3DDE3" opacity="1.000000" stroke="none" 
	d="
M250.901337,253.205383 
	C251.796524,255.096802 252.360382,256.849365 253.252029,259.620758 
	C249.738342,257.526703 247.857788,256.052002 250.901337,253.205383 
z"/>
<path fill="#F3DDE3" opacity="1.000000" stroke="none" 
	d="
M275.719696,207.725555 
	C274.646637,205.845703 275.670776,202.390564 277.158112,202.209656 
	C278.281219,202.073029 278.697235,202.838333 278.269928,203.740219 
	C277.640747,205.068161 276.782654,206.287674 275.719696,207.725555 
z"/>
<path fill="#F3DDE3" opacity="1.000000" stroke="none" 
	d="
M222.658539,236.420990 
	C223.546814,237.522827 225.044983,238.009384 224.613602,239.325455 
	C224.322006,240.215118 223.251633,240.089157 222.587585,239.507599 
	C221.446167,238.507980 219.515274,237.727264 220.450211,235.757675 
	C220.913330,234.782059 221.797913,235.744095 222.658539,236.420990 
z"/>
<path fill="#F2B634" opacity="1.000000" stroke="none" 
	d="
M260.312531,259.565948 
	C260.689575,259.290680 260.878510,259.233337 261.011139,259.295715 
	C262.673553,260.077148 264.000244,261.201996 264.427032,263.066559 
	C264.476227,263.281464 263.766663,263.959961 263.538574,263.903137 
	C261.452881,263.383423 260.249451,262.036835 260.312531,259.565948 
z"/>
<path fill="#534246" opacity="1.000000" stroke="none" 
	d="
M251.426117,192.569183 
	C249.741333,194.391205 248.356415,194.181091 247.365112,192.382294 
	C246.932922,191.598099 247.573654,190.731339 248.306412,190.415817 
	C250.102859,189.642258 251.483490,189.904556 251.426117,192.569183 
z"/>
<path fill="#F2D5DD" opacity="1.000000" stroke="none" 
	d="
M282.889465,195.693100 
	C279.674622,196.876862 280.065216,193.937881 279.108154,192.476135 
	C279.017761,192.338074 279.514984,191.549927 279.831116,191.480362 
	C280.200684,191.399048 280.853638,191.654846 281.064117,191.974670 
	C281.771606,193.049606 282.336975,194.218033 282.889465,195.693100 
z"/>
<path fill="#F2B634" opacity="1.000000" stroke="none" 
	d="
M215.529236,249.887390 
	C213.570694,248.704178 213.422134,247.639297 215.607773,247.588074 
	C217.284485,247.548767 218.977493,248.204834 221.250687,248.672485 
	C219.338608,250.673355 217.521805,249.857269 215.529236,249.887390 
z"/>
<path fill="#F2B634" opacity="1.000000" stroke="none" 
	d="
M236.417114,259.632874 
	C234.410797,260.680573 232.665756,261.566315 230.503784,260.720306 
	C233.915619,257.787720 233.915619,257.787720 236.417114,259.632874 
z"/>
<path fill="#F2B634" opacity="1.000000" stroke="none" 
	d="
M291.126709,230.128281 
	C290.224030,230.995270 289.724792,232.237549 288.589111,231.566742 
	C287.763855,231.079300 288.000305,230.074188 288.531555,229.415283 
	C289.285675,228.479935 289.890442,226.866226 291.497894,227.733017 
	C292.381470,228.209442 291.773254,229.161835 291.126709,230.128281 
z"/>
<path fill="#F3DDE3" opacity="1.000000" stroke="none" 
	d="
M233.188660,229.071106 
	C233.273697,228.577927 233.327942,228.407761 233.441254,228.299301 
	C234.466568,227.317886 235.266556,225.870407 237.022598,226.306595 
	C237.258606,226.365234 237.580109,227.308395 237.430374,227.494293 
	C236.359467,228.823883 235.422531,230.619186 233.188660,229.071106 
z"/>
<path fill="#F2B634" opacity="1.000000" stroke="none" 
	d="
M224.007751,185.420425 
	C223.143646,187.546356 221.982254,189.057022 219.919403,189.777954 
	C220.496552,186.252090 220.544006,186.198669 224.007751,185.420425 
z"/>
<path fill="#534246" opacity="1.000000" stroke="none" 
	d="
M263.475952,189.694977 
	C264.553162,190.026306 265.910278,189.911285 265.646423,190.922501 
	C265.162506,192.777252 263.499084,191.894653 262.340302,191.722046 
	C261.460846,191.591064 260.113068,191.231308 260.583221,189.933044 
	C261.041382,188.667938 262.203033,189.265579 263.475952,189.694977 
z"/>
<path fill="#F3DDE3" opacity="1.000000" stroke="none" 
	d="
M284.892761,245.026291 
	C281.249908,245.444244 281.324005,242.940979 281.146698,239.998230 
	C283.776093,240.887329 283.627380,243.318146 284.892761,245.026291 
z"/>
<path fill="#F1C324" opacity="1.000000" stroke="none" 
	d="
M265.217896,274.562622 
	C263.056427,274.887329 261.146149,275.585724 258.918182,273.855042 
	C261.543579,273.111084 263.607910,271.617798 265.217896,274.562622 
z"/>
<path fill="#F2B634" opacity="1.000000" stroke="none" 
	d="
M289.272308,195.731659 
	C290.633972,197.516174 290.633972,197.516174 289.188934,200.891464 
	C287.226257,199.177200 287.989716,197.553543 289.272308,195.731659 
z"/>
<path fill="#F2D5DD" opacity="1.000000" stroke="none" 
	d="
M253.391479,282.337036 
	C252.181335,281.206848 250.453094,280.468292 251.692535,278.719391 
	C252.104675,278.137787 252.962173,278.503723 253.351089,279.036255 
	C254.114151,280.081116 256.469604,281.057220 253.391479,282.337036 
z"/>
<path fill="#F2B634" opacity="1.000000" stroke="none" 
	d="
M240.717865,209.844543 
	C241.982742,209.175674 243.319717,208.940460 242.659836,210.493042 
	C241.995575,212.055969 240.583847,213.649963 238.591339,213.554764 
	C237.802582,213.517059 237.824844,212.230453 238.498108,211.560333 
	C239.073410,210.987762 239.781525,210.548645 240.717865,209.844543 
z"/>
<path fill="#F2B634" opacity="1.000000" stroke="none" 
	d="
M278.145813,180.358505 
	C280.837463,178.682617 281.151947,181.464920 282.679535,182.110962 
	C280.463013,183.238174 279.103485,182.389633 278.145813,180.358505 
z"/>
<path fill="#F2B634" opacity="1.000000" stroke="none" 
	d="
M305.589539,225.251755 
	C305.236237,226.655731 304.914154,227.716934 304.455383,229.228622 
	C302.419556,227.190048 302.608368,225.371704 304.008118,223.859634 
	C304.803802,223.000092 305.298981,224.180466 305.589539,225.251755 
z"/>
<path fill="#F3DDE3" opacity="1.000000" stroke="none" 
	d="
M217.047653,261.580994 
	C217.063583,259.652649 216.672974,257.811646 219.601425,257.327515 
	C218.773270,259.140594 220.692352,261.726501 217.047653,261.580994 
z"/>
<path fill="#F3DDE3" opacity="1.000000" stroke="none" 
	d="
M228.485321,198.453857 
	C228.905960,198.214020 229.094055,198.155518 229.229294,198.215744 
	C230.547607,198.802979 232.043839,199.177200 232.717255,200.627625 
	C232.808990,200.825180 232.226120,201.651627 231.970581,201.644562 
	C230.034149,201.591003 228.526489,200.873047 228.485321,198.453857 
z"/>
<path fill="#F2B634" opacity="1.000000" stroke="none" 
	d="
M284.439178,216.506271 
	C281.479126,215.063599 284.010529,213.841812 284.580017,212.543640 
	C284.828339,211.977570 285.875244,211.791534 286.214172,212.481873 
	C287.050232,214.184738 285.190002,215.005035 284.439178,216.506271 
z"/>
<path fill="#F2B634" opacity="1.000000" stroke="none" 
	d="
M271.330383,253.314148 
	C273.973602,255.528519 271.465485,256.345245 270.165894,258.234711 
	C269.060394,255.916916 270.022247,254.697479 271.330383,253.314148 
z"/>
<path fill="#F3DDE3" opacity="1.000000" stroke="none" 
	d="
M298.394653,232.665100 
	C299.657349,233.351791 301.009125,233.590149 300.830627,235.049744 
	C300.733521,235.843918 299.902832,235.961990 299.370850,235.511398 
	C298.288086,234.594238 295.886169,234.856735 296.380585,232.547699 
	C296.528656,231.856110 297.482269,232.296829 298.394653,232.665100 
z"/>
<path fill="#F2D5DD" opacity="1.000000" stroke="none" 
	d="
M279.152954,258.447388 
	C280.576660,259.988495 279.873260,261.229980 278.728333,262.298157 
	C278.515808,262.496399 277.617493,262.404968 277.507721,262.197479 
	C276.631592,260.541412 277.752350,259.495544 279.152954,258.447388 
z"/>
<path fill="#F1C324" opacity="1.000000" stroke="none" 
	d="
M245.025848,224.264008 
	C246.626694,217.401077 253.598099,214.735123 261.640381,217.495300 
	C267.248993,219.420227 269.119965,222.285858 269.079956,228.890182 
	C269.035706,236.195511 266.385742,240.799820 261.237610,242.552505 
	C260.110260,242.936310 258.903625,243.274963 257.853790,242.669022 
	C250.857605,238.631027 244.065338,234.406143 245.025848,224.264008 
z"/>
<path fill="#D59C70" opacity="1.000000" stroke="none" 
	d="
M271.355774,235.871613 
	C271.067322,234.064484 271.062836,232.080093 271.113770,230.097107 
	C271.378723,219.777588 266.515747,214.783081 256.163696,214.741058 
	C253.362091,214.729691 250.617081,215.190369 247.192474,216.243942 
	C253.787094,210.456467 265.539398,209.474365 270.233093,213.780869 
	C274.368988,217.575607 275.209442,230.434967 271.355774,235.871613 
z"/>
<path fill="#D59C70" opacity="1.000000" stroke="none" 
	d="
M270.994934,235.989441 
	C270.878113,235.847794 270.782471,237.013184 270.862244,236.009247 
	C271.046234,236.048233 271.011169,236.009781 270.994934,235.989441 
z"/>
<path fill="#F5ECEE" opacity="1.000000" stroke="none" 
	d="
M241.920380,187.079346 
	C240.312332,186.965652 238.984100,187.583008 237.614746,186.479691 
	C239.145523,185.132050 240.676422,183.996323 242.687576,184.594055 
	C243.100418,184.716751 243.512650,186.354767 241.920380,187.079346 
z"/>
<path fill="#F5ECEE" opacity="1.000000" stroke="none" 
	d="
M259.197937,186.131256 
	C258.001984,186.022934 256.618866,186.091309 256.521881,185.770630 
	C256.070068,184.276962 257.424286,183.980072 258.454468,183.646027 
	C259.267090,183.382523 260.304138,182.618927 260.868958,183.933990 
	C261.365631,185.090424 261.352997,186.165756 259.197937,186.131256 
z"/>
</svg>